# xmcd CD database file
#
# Track frame offsets:
#	150
#	12687
#	25950
#	39810
#	53470
#	67220
#	80352
#	93116
#	105807
#	117961
#	131122
#	144386
#	158037
#	172164
#	185971
#	199336
#	212233
#	225215
#	239390
#	253100
#	266500
#
# Disc length: 3834 seconds
#
# Revision: 0
# Processed by: cddbd v1.5.2PL0 Copyright (c) Steve Scherf et al.
# Submitted via: CDex 1.70beta2
#
DISCID=230ef815
DTITLE=Wardell Gray - Bebop Story Vol 1 1944-46 CD 043
DYEAR=2008
DGENRE=Jazz
TTITLE0=Furlough Blues
TTITLE1=Scoops-carey's-Merry
TTITLE2=Nonchalant Man
TTITLE3=At The Al Grotto
TTITLE4=Spooks Ball 
TTITLE5=Rosetaa
TTITLE6=Now That You're Mine
TTITLE7=Straight Life
TTITLE8=Margie
TTITLE9=I Ain't Gonna Give Nobod None Of This Jelly Roll
TTITLE10=Oh My Achin' Back
TTITLE11=Let's Get Started
TTITLE12=Throwin' The Switch
TTITLE13=Trick A Track
TTITLE14=Bamby
TTITLE15=BLue Keys
TTITLE16=Dell's Bells
TTITLE17=How High the Moon
TTITLE18=The Man I Love
TTITLE19=Steeplechase
TTITLE20=The Great Lie
EXTD=YEAR: 2008
EXTT0=
EXTT1=
EXTT2=
EXTT3=
EXTT4=
EXTT5=
EXTT6=
EXTT7=
EXTT8=
EXTT9=
EXTT10=
EXTT11=
EXTT12=
EXTT13=
EXTT14=
EXTT15=
EXTT16=
EXTT17=
EXTT18=
EXTT19=
EXTT20=
PLAYORDER=
